<svg width="127" height="127" viewBox="0 0 127 127" fill="none" xmlns="http://www.w3.org/2000/svg">
<g clip-path="url(#clip0)">
<path fill-rule="evenodd" clip-rule="evenodd" d="M63.4681 1.57678C28.4215 1.57678 0 29.9105 0 64.8592C0 92.8217 18.1839 116.535 43.4031 124.907C46.5774 125.493 47.744 123.531 47.744 121.858C47.744 120.349 47.6808 115.365 47.655 110.081C29.9959 113.91 26.2734 102.611 26.2734 102.611C23.3871 95.2951 19.2264 93.3495 19.2264 93.3495C13.468 89.4181 19.6645 89.5046 19.6645 89.5046C26.0366 89.9485 29.3914 96.0217 29.3914 96.0217C35.0561 105.697 44.244 102.896 47.8635 101.282C48.4351 97.1919 50.075 94.3983 51.8928 92.8169C37.7945 91.2216 22.9747 85.7931 22.9747 61.5423C22.9747 54.6351 25.458 48.9871 29.5132 44.5582C28.8527 42.9606 26.6786 36.5277 30.1247 27.8126C30.1247 27.8126 35.4542 26.1098 47.5848 34.2993C52.645 32.9001 58.0729 32.1947 63.4635 32.1713C68.8585 32.1947 74.2959 32.8977 79.3632 34.2993C91.4774 26.1145 96.8021 27.8126 96.8021 27.8126C100.253 36.5301 98.0884 42.9675 97.4277 44.5584C101.497 48.9871 103.959 54.6351 103.959 61.5423C103.959 85.8491 89.1065 91.1933 74.9776 92.7608C77.2548 94.7228 79.2883 98.5747 79.2883 104.475C79.2883 112.938 79.2157 119.758 79.2157 121.84C79.2157 123.524 80.3589 125.493 83.5777 124.876C108.783 116.5 126.943 92.7839 126.943 64.838C126.943 29.8938 98.5265 1.55542 63.4728 1.55542L63.4683 1.57658L63.4681 1.57678Z" fill="#CA1215"/>
</g>
<defs>
<clipPath id="clip0">
<rect width="126.941" height="126.57" fill="white"/>
</clipPath>
</defs>
</svg>
