<svg width="124" height="123" viewBox="0 0 124 123" fill="none" xmlns="http://www.w3.org/2000/svg">
<path d="M61.9882 11.52C34.3374 11.53 11.9319 33.9 11.952 61.46C11.952 70.86 14.6098 80.05 19.6244 88L14.8104 108.48L35.3504 103.68C58.7487 118.37 89.659 111.37 104.392 88.04C119.125 64.71 112.105 33.89 88.7062 19.2C80.7129 14.17 71.4458 11.51 61.9882 11.52ZM33.3947 109.34L25.1205 111.26L26.4343 116.87L32.5221 115.46C37.1356 117.97 42.06 119.87 47.1649 121.12L48.5489 115.53C43.2334 114.21 38.1385 112.11 33.4348 109.3L33.3947 109.34ZM6.43589 96.86L12.0623 98.16L13.988 89.91C11.1797 85.21 9.08363 80.11 7.77982 74.8L2.17344 76.18C3.4271 81.27 5.3427 86.18 7.85002 90.78L6.43589 96.86ZM19.9955 112.42L8.07067 115.2L10.8488 103.31L5.22235 102L2.44423 113.89C1.71209 116.99 3.64775 120.09 6.7468 120.81C7.60932 121.01 8.51196 121.01 9.3845 120.81L21.2993 118.08L19.9955 112.42ZM53.6237 6.38C59.17 5.55 64.8064 5.55 70.3526 6.38L71.2151 0.69C65.0973 -0.23 58.8691 -0.23 52.7512 0.69L53.6237 6.38ZM114.752 29.68L109.808 32.64C112.706 37.43 114.863 42.63 116.207 48.06L121.813 46.68C120.329 40.69 117.952 34.96 114.752 29.68ZM17.0369 28.42C20.3666 23.92 24.3583 19.94 28.8714 16.62L25.4013 11.98C20.4368 15.63 16.044 20.01 12.3833 24.96L17.0369 28.42ZM95.1049 16.62C99.6181 19.94 103.61 23.92 106.94 28.42L111.593 24.96C107.932 20.01 103.54 15.63 98.5751 11.98L95.1049 16.62ZM106.94 94.47C103.61 98.97 99.6181 102.94 95.1049 106.26L98.535 110.9C103.509 107.25 107.912 102.87 111.593 97.92L106.94 94.47ZM70.3526 116.5C64.8064 117.33 59.17 117.33 53.6237 116.5L52.7612 122.2C58.8791 123.12 65.1073 123.12 71.2252 122.2L70.3526 116.5ZM121.803 76.19L116.197 74.81C114.853 80.25 112.696 85.45 109.798 90.25L114.742 93.22C117.952 87.93 120.329 82.18 121.803 76.19ZM117.831 61.44C117.831 64.23 117.621 67.02 117.199 69.78L122.906 70.65C123.829 64.55 123.829 58.34 122.906 52.24L117.199 53.1C117.621 55.86 117.831 58.65 117.831 61.44ZM93.8412 114.05L90.8726 109.12C86.0685 112.01 80.8533 114.16 75.4074 115.5L76.7914 121.09C82.799 119.61 88.5458 117.24 93.8412 114.05ZM6.14504 61.44C6.14504 58.65 6.35566 55.86 6.76686 53.1L1.06019 52.24C0.13749 58.34 0.13749 64.55 1.06019 70.65L6.76686 69.78C6.35566 67.02 6.14504 64.23 6.14504 61.44ZM9.22404 29.68C6.02469 34.97 3.64775 40.7 2.16341 46.69L7.76979 48.07C9.11371 42.63 11.27 37.43 14.1685 32.63L9.22404 29.68ZM76.7714 1.79L75.3873 7.38C80.8433 8.72 86.0585 10.87 90.8726 13.76L93.8513 8.83C88.5558 5.64 82.789 3.27 76.7714 1.79ZM47.195 1.79L48.579 7.38C43.1231 8.72 37.9078 10.87 33.0938 13.76L30.1251 8.83C35.4406 5.64 41.1874 3.27 47.195 1.79Z" fill="#CA1215"/>
</svg>
