<svg width="128" height="127" viewBox="0 0 128 127" fill="none" xmlns="http://www.w3.org/2000/svg">
<path d="M123.398 10.2329C122.945 10.2102 122.473 10.2804 122.004 10.4611L4.06855 55.8244C1.15778 56.9424 1.18272 61.0518 4.1018 62.1421L32.8381 72.8353L43.9609 108.502C44.6727 110.785 47.4748 111.63 49.3336 110.114L65.3519 97.0944C67.031 95.7294 69.4231 95.6618 71.177 96.9318L100.069 117.846C102.057 119.287 104.876 118.201 105.374 115.805L126.539 14.2984C126.982 12.1716 125.362 10.3312 123.398 10.2329ZM98.8895 32.499C99.663 32.5273 100.216 33.5479 99.5112 34.1991L53.1621 77.1568C51.5325 78.6683 50.4815 80.6936 50.1834 82.8901L48.6059 94.5563C48.3957 96.1136 46.2023 96.2678 45.7704 94.7606L39.6978 73.486C39.0034 71.0594 40.0166 68.4681 42.1692 67.1437L98.3312 32.6547C98.5203 32.5389 98.711 32.4924 98.8895 32.499V32.499Z" fill="#CA1215"/>
</svg>
