<svg viewBox="0 0 32 27.6" version="1.1" xmlns="http://www.w3.org/2000/svg"><g fill-opacity="1"><path d="m165.4 145-1.5 2.8-1.4 2.4 1.8 3.3-3.6-.1-3.2 5.3 16 .1h16l-3.2-5.4-3.6.1 1.8-3.3-1.4-2.4-1.5-2.8h-6.1l-2 3.2-1.7-3.2zm8.1 13.8h-16l3.2 5.4h3.6l-1.8 3.3 1.4 2.4 1.5 2.7h6.1l2-3.1 1.7 3.1h6.4l1.5-2.7 1.4-2.4-1.8-3.4 3.6.1 3.2-5.5z" fill="#fff" stroke-width="2.2" stroke-linecap="round" stroke-linejoin="round" stroke-opacity=".9" paint-order="stroke markers fill" transform="translate(-374.6 -145) matrix(.99919 0 0 .99919 217.3 .1)"/><path d="m182.8 148.1 1.3 2.3-1.7 3.3 3.5-.1 3.1 5.1-15.5.1 7.8-13.4zm4.3 9.7-1-1.7h-8l4-6.9-.9-1.6-5.8 10.1z" fill="#dd2d39" stroke-width="0" transform="translate(-374.6 -145) matrix(.99919 0 0 .99919 217.3 .1)"/><path d="m182.8 169.5 1.3-2.3-1.7-3.2h3.5l3.1-5.3-15.5.1 7.8 13.4zm4.3-9.6-1 1.6h-8l4 7-.9 1.5-5.8-10z" fill="#000" stroke-width="0" transform="translate(-374.6 -145) matrix(.99919 0 0 .99919 217.3 .1)"/><path d="m164.2 148.1-1.3 2.3 1.7 3.3-3.5-.1-3.1 5.1 15.5.1-7.8-13.4zm-4.3 9.7 1-1.7h8l-4-6.9.9-1.6 5.8 10.1z" fill="#dd2d39" stroke-width="0" transform="translate(-374.6 -145) matrix(.99919 0 0 .99919 217.3 .1)"/><path d="M178.1 145.4h-2.6l-2 3.1-1.7-3h-6.1l7.8 13.3 7.8-13.4zm-10.5 1.1h2l3.9 7 4-7h1.9l-5.9 10.1z" fill="#09b868" stroke-width="0" transform="translate(-374.6 -145) matrix(.99919 0 0 .99919 217.3 .1)"/><path d="m164.2 169.5-1.3-2.3 1.7-3.2H161l-3.1-5.3 15.5.1-7.8 13.4zM160 160l1 1.6h8l-4 7 .9 1.5 5.8-10z" fill="#000" stroke-width="0" transform="translate(-374.6 -145) matrix(.99919 0 0 .99919 217.3 .1)"/><path d="M168.9 172.2h2.6l2-3 1.7 3h6.1l-7.8-13.4-7.8 13.4zm10.5-1.1h-1.9l-4-7-4 7h-1.9l5.9-10z" fill="#09b868" stroke-width="0" transform="translate(-374.6 -145) matrix(.99919 0 0 .99919 217.3 .1)"/></g></svg>
